<svg width="54" height="79" viewBox="0 0 54 79" fill="none" xmlns="http://www.w3.org/2000/svg">
<mask id="mask0_190_24" style="mask-type:alpha" maskUnits="userSpaceOnUse" x="0" y="0" width="54" height="79">
<path d="M14.28 0C6.41343 0 0 6.41343 0 14.28C0 19.8245 3.27588 24.516 7.91109 26.88C3.27588 29.244 0 33.9355 0 39.48C0 45.0245 3.27588 49.716 7.91109 52.08C3.27588 54.444 0 59.1355 0 64.68C0 72.5466 6.41343 78.96 14.28 78.96C22.1466 78.96 28.56 72.5466 28.56 64.68V52.08V46.4625C30.8135 50.7389 35.1659 53.76 40.32 53.76C47.7228 53.76 53.76 47.7228 53.76 40.32C53.76 34.2355 49.604 29.2802 44.0409 27.6347C49.65 25.7069 53.76 20.53 53.76 14.28C53.76 6.41343 47.3466 0 39.48 0H26.88H14.28ZM14.28 3.36H25.2V25.2H14.28C8.22945 25.2 3.36 20.3306 3.36 14.28C3.36 8.22945 8.22945 3.36 14.28 3.36ZM28.56 3.36H39.48C45.5306 3.36 50.4 8.22945 50.4 14.28C50.4 20.3306 45.5306 25.2 39.48 25.2H28.56V3.36ZM14.28 28.56H25.2V50.4H14.28C8.22945 50.4 3.36 45.5306 3.36 39.48C3.36 33.4294 8.22945 28.56 14.28 28.56ZM28.56 28.56H34.1775C31.7668 29.8303 29.8303 31.7668 28.56 34.1775V28.56ZM40.32 30.24C45.9069 30.24 50.4 34.7331 50.4 40.32C50.4 45.9069 45.9069 50.4 40.32 50.4C34.7331 50.4 30.24 45.9069 30.24 40.32C30.24 34.7331 34.7331 30.24 40.32 30.24ZM14.28 53.76H25.2V64.68C25.2 70.7306 20.3306 75.6 14.28 75.6C8.22945 75.6 3.36 70.7306 3.36 64.68C3.36 58.6294 8.22945 53.76 14.28 53.76Z" fill="black"/>
</mask>
<g mask="url(#mask0_190_24)">
<rect x="-38" y="-26" width="131" height="131" fill="url(#paint0_linear_190_24)"/>
</g>
<defs>
<linearGradient id="paint0_linear_190_24" x1="93" y1="39.4267" x2="-38" y2="39.4267" gradientUnits="userSpaceOnUse">
<stop stop-color="#F0F7DA"/>
<stop offset="0.14" stop-color="#93BD9A"/>
<stop offset="0.415" stop-color="#65B8A6"/>
<stop offset="0.750011" stop-color="#2A5564"/>
<stop offset="1" stop-color="#1C1C1C"/>
</linearGradient>
</defs>
</svg>
