<svg width="100" height="75" viewBox="0 0 100 75" fill="none" xmlns="http://www.w3.org/2000/svg">
<mask id="mask0_190_23" style="mask-type:alpha" maskUnits="userSpaceOnUse" x="0" y="0" width="101" height="75">
<path d="M86.0621 43.0841C82.5681 43.1021 79.5401 43.9421 77.0021 45.1921C76.0741 43.3401 75.1341 41.7101 74.9761 40.4981C74.7921 39.0841 74.5781 38.2401 74.8001 36.5541C75.0221 34.8681 75.9981 32.4821 75.9821 32.3041C75.9681 32.1261 75.7641 31.2681 73.7481 31.2521C71.7321 31.2381 70.0081 31.6401 69.8041 32.1721C69.6001 32.7041 69.2121 33.9021 68.9721 35.1521C68.6181 36.9801 64.9481 43.5001 62.8621 46.9101C62.1801 45.5781 61.6001 44.4061 61.4801 43.4781C61.2961 42.0641 61.0821 41.2201 61.3041 39.5341C61.5261 37.8481 62.5021 35.4621 62.4861 35.2841C62.4721 35.1061 62.2681 34.2481 60.2521 34.2321C58.2361 34.2181 56.5121 34.6201 56.3081 35.1521C56.1041 35.6841 55.8881 36.9281 55.4761 38.1321C55.0621 39.3361 50.1821 50.2101 48.9041 53.0281C48.2521 54.4641 47.6861 55.6181 47.2861 56.4061L47.2841 56.4021C47.2841 56.4021 47.2601 56.4541 47.2161 56.5441C46.8741 57.2141 46.6701 57.5861 46.6701 57.5861C46.6701 57.5861 46.6721 57.5921 46.6761 57.6001C46.4041 58.0921 46.1141 58.5501 45.9701 58.5501C45.8701 58.5501 45.6681 57.2381 46.0141 55.4401C46.7401 51.6681 48.4841 45.7841 48.4681 45.5821C48.4601 45.4781 48.7921 44.4541 47.3281 43.9161C45.9061 43.3961 45.3981 44.2641 45.2681 44.2661C45.1421 44.2681 45.0481 44.5721 45.0481 44.5721C45.0481 44.5721 46.6341 37.9561 42.0241 37.9561C39.1441 37.9561 35.1521 41.1081 33.1841 43.9641C31.9441 44.6401 29.2881 46.0901 26.4701 47.6381C25.3881 48.2321 24.2841 48.8401 23.2361 49.4181C23.1641 49.3401 23.0941 49.2601 23.0201 49.1821C17.4321 43.2201 7.10409 39.0041 7.54209 30.9901C7.70209 28.0761 8.71409 20.4041 27.3901 11.0981C42.6881 3.47406 54.9361 5.57206 57.0521 10.2221C60.0761 16.8641 50.5061 29.2101 34.6201 30.9901C28.5661 31.6681 25.3801 29.3221 24.5861 28.4481C23.7521 27.5281 23.6281 27.4861 23.3161 27.6601C22.8081 27.9421 23.1301 28.7541 23.3161 29.2381C23.7901 30.4721 25.7361 32.6621 29.0561 33.7501C31.9761 34.7081 39.0821 35.2341 47.6781 31.9101C57.3041 28.1861 64.8201 17.8281 62.6141 9.17006C60.3681 0.36406 45.7681 -2.52994 31.9501 2.37806C23.7261 5.30006 14.8241 9.88606 8.42209 15.8721C0.810094 22.9921 -0.401906 29.1881 0.0980943 31.7761C1.87609 40.9761 14.5541 46.9661 19.6321 51.4061C19.3821 51.5441 19.1461 51.6741 18.9321 51.7921C16.3861 53.0521 6.72209 58.1101 4.30409 63.4541C1.56209 69.5161 4.74009 73.8661 6.84609 74.4521C13.3661 76.2661 20.0581 73.0021 23.6541 67.6381C27.2501 62.2761 26.8101 55.2941 25.1601 52.1061C25.1401 52.0661 25.1161 52.0281 25.0961 51.9881C25.7541 51.5981 26.4241 51.2041 27.0881 50.8141C28.3841 50.0541 29.6561 49.3441 30.7601 48.7421C30.1421 50.4341 29.6901 52.4621 29.4541 55.3921C29.1781 58.8341 30.5881 63.2821 32.4341 65.0321C33.2461 65.8021 34.2241 65.8201 34.8441 65.8201C36.9921 65.8201 37.9721 64.0341 39.0501 61.9201C40.3741 59.3281 41.5481 56.3121 41.5481 56.3121C41.5481 56.3121 40.0741 64.4621 44.0901 64.4621C45.5521 64.4621 47.0241 62.5641 47.6801 61.5981C47.6821 61.6081 47.6821 61.6141 47.6821 61.6141C47.6821 61.6141 47.7201 61.5521 47.7941 61.4241C47.9461 61.1921 48.0321 61.0441 48.0321 61.0441C48.0321 61.0441 48.0361 61.0281 48.0401 61.0021C48.6281 59.9821 49.9321 57.6541 51.8881 53.8141C54.4141 48.8541 56.8381 42.6421 56.8381 42.6421C56.8381 42.6421 57.0641 44.1621 57.8021 46.6721C58.2361 48.1501 59.1601 49.7841 59.8881 51.3501C59.3021 52.1641 58.9421 52.6301 58.9421 52.6301C58.9421 52.6301 58.9461 52.6381 58.9521 52.6541C58.4841 53.2761 57.9581 53.9461 57.4081 54.6021C55.4141 56.9781 53.0381 59.6901 52.7201 60.4741C52.3461 61.3961 52.4341 62.0761 53.1581 62.6201C53.6861 63.0181 54.6281 63.0801 55.6121 63.0141C57.4041 62.8941 58.6661 62.4481 59.2881 62.1781C60.2581 61.8361 61.3881 61.2961 62.4481 60.5161C64.4041 59.0781 65.5841 57.0201 65.4721 54.2941C65.4101 52.7921 64.9301 51.3041 64.3241 49.8981C64.5021 49.6421 64.6801 49.3861 64.8581 49.1241C67.9421 44.6141 70.3341 39.6601 70.3341 39.6601C70.3341 39.6601 70.5601 41.1801 71.2981 43.6901C71.6721 44.9621 72.4101 46.3481 73.0721 47.7081C70.1721 50.0641 68.3741 52.8021 67.7481 54.5981C66.5941 57.9201 67.4981 59.4261 69.1941 59.7681C69.9621 59.9241 71.0481 59.5721 71.8641 59.2261C72.8801 58.8901 74.1001 58.3281 75.2401 57.4901C77.1961 56.0521 79.0781 54.0381 78.9641 51.3121C78.9121 50.0721 78.5761 48.8401 78.1201 47.6561C80.5781 46.6321 83.7621 46.0621 87.8161 46.5361C96.5141 47.5521 98.2201 52.9821 97.8941 55.2541C97.5681 57.5281 95.7441 58.7761 95.1341 59.1541C94.5241 59.5321 94.3381 59.6621 94.3901 59.9421C94.4641 60.3501 94.7461 60.3341 95.2661 60.2461C95.9821 60.1261 99.8321 58.3981 99.9981 54.2021C100.206 48.8861 95.1021 43.0361 86.0621 43.0841ZM19.0261 65.6841C16.1461 68.8261 12.1201 70.0141 10.3941 69.0141C8.53009 67.9341 9.26809 63.3061 12.8041 59.9721C14.9581 57.9401 17.7401 56.0681 19.5861 54.9141C20.0061 54.6621 20.6221 54.2901 21.3721 53.8401C21.4961 53.7701 21.5661 53.7301 21.5661 53.7301L21.5641 53.7261C21.7081 53.6401 21.8581 53.5501 22.0101 53.4581C23.2961 58.2061 22.0501 62.3861 19.0261 65.6841ZM40.0121 51.4161C39.0081 53.8621 36.9081 60.1201 35.6301 59.7841C34.5321 59.4961 33.8641 54.7381 35.4101 50.0581C36.1881 47.7021 37.8501 44.8861 38.8281 43.7921C40.4001 42.0341 42.1321 41.4581 42.5521 42.1721C43.0901 43.0801 40.6421 49.8821 40.0121 51.4161ZM57.3521 59.6901C56.9261 59.9121 56.5361 60.0521 56.3561 59.9441C56.2221 59.8641 56.5321 59.5721 56.5321 59.5721C56.5321 59.5721 58.7001 57.2381 59.5561 56.1761C60.0521 55.5581 60.6301 54.8241 61.2561 54.0041C61.2621 54.0861 61.2641 54.1681 61.2641 54.2481C61.2561 57.0441 58.5561 58.9301 57.3521 59.6901ZM70.7101 56.6441C70.3921 56.4181 70.4461 55.6881 71.4881 53.4161C71.8981 52.5241 72.8321 51.0201 74.4581 49.5841C74.6461 50.1741 74.7621 50.7401 74.7581 51.2681C74.7361 54.7861 72.2261 56.1001 70.7101 56.6441Z" fill="black"/>
</mask>
<g mask="url(#mask0_190_23)">
<rect x="-15" y="-28" width="131" height="131" fill="url(#paint0_linear_190_23)"/>
</g>
<defs>
<linearGradient id="paint0_linear_190_23" x1="116" y1="37.4267" x2="-15" y2="37.4267" gradientUnits="userSpaceOnUse">
<stop stop-color="#F0F7DA"/>
<stop offset="0.14" stop-color="#93BD9A"/>
<stop offset="0.415" stop-color="#65B8A6"/>
<stop offset="0.750011" stop-color="#2A5564"/>
<stop offset="1" stop-color="#1C1C1C"/>
</linearGradient>
</defs>
</svg>
