<svg width="1920" height="528" viewBox="0 0 1920 528" fill="none" xmlns="http://www.w3.org/2000/svg">
<mask id="mask0_193_49" style="mask-type:alpha" maskUnits="userSpaceOnUse" x="-1" y="15" width="974" height="498">
<path d="M0 264.5L6.94286 264.705L13.8857 264.962L20.8286 265.252L27.7714 265.544L34.7143 265.794L41.6571 265.945L48.6 265.941L55.5429 265.724L62.4857 265.251L69.4286 264.5L76.3714 263.487L83.3143 262.27L90.2571 260.955L97.2 259.701L104.143 258.703L111.086 258.182L118.029 258.356L124.971 259.41L131.914 261.457L138.857 264.5L145.8 268.408L152.743 272.891L159.686 277.506L166.629 281.675L173.571 284.734L180.514 286.008L187.457 284.898L194.4 280.981L201.343 274.112L208.286 264.5L215.229 252.76L222.171 239.913L229.114 227.333L236.057 216.633L243 209.498L249.943 207.478L256.886 211.757L263.829 222.937L270.771 240.859L277.714 264.5L284.657 291.967L291.6 320.605L298.543 347.217L305.486 368.4L312.429 380.938L319.371 382.234L326.314 370.711L333.257 346.132L340.2 309.786L347.143 264.5L354.086 214.451L361.029 164.795L367.971 121.13L374.914 88.8611C374.914 88.8611 378.627 66.0022 386.5 70.9711C392 74.4423 394 88.8611 394 88.8611L395.743 97.9282L402.686 139.637L409.629 196.941L416.571 264.5L423.514 335.523L430.457 402.495L437.4 458.029L444.343 495.734C444.343 495.734 446.069 510.738 452.5 509.5C456.985 508.636 458.229 501.588 458.229 501.588L465.171 467.951L472.114 413.243L479.057 342.992L486 264.5L492.943 186.008L499.886 115.757L508.5 60L513.771 27.4123C513.771 27.4123 515.429 18 520.714 18C526 18 527.657 33.266 527.657 33.266L534.6 70.9711L541.543 126.505L548.486 193.477L555.429 264.5L562.371 332.059L569.314 389.363L577 431L580.5 446C580.5 446 582.621 455.544 587.5 457C594.758 459.165 597.086 440.139 597.086 440.139L604.029 407.87L610.971 364.205L617.914 314.549L624.857 264.5L631.8 219.214L638.743 182.868L645.686 158.289C645.686 158.289 648.885 142.837 655 144.5C657.073 145.064 661.5 152 661.5 152L665.5 160.5L673.457 181.783L680.4 208.395L687.343 237.033L694.286 264.5L701.229 288.141L708.171 306.063L715.114 317.243L722.057 321.522L729 319.502L735.943 312.367L742.886 301.667L749.829 289.087L756.771 276.24L763.714 264.5L770.657 254.888L777.6 248.019L784.543 244.102L791.486 242.992L798.429 244.266L805.371 247.325L812.314 251.494L819.257 256.109L826.2 260.592L833.143 264.5L840.086 267.543L847.029 269.59L853.971 270.644L860.914 270.818L867.857 270.297L874.8 269.299L881.743 268.045L888.686 266.73L895.629 265.513L902.571 264.5L909.514 263.749L916.457 263.276L923.4 263.059L930.343 263.055L937.286 263.206L944.229 263.456L951.171 263.748L958.114 264.038L965.057 264.295L972 264.5" stroke="#18A0FB" stroke-width="5"/>
</mask>
<g mask="url(#mask0_193_49)">
<rect y="-183" width="1920" height="893" fill="url(#paint0_linear_193_49)"/>
</g>
<mask id="mask1_193_49" style="mask-type:alpha" maskUnits="userSpaceOnUse" x="970" y="15" width="951" height="498">
<path d="M971 264.5L982.714 265.794L989.657 265.945L996.6 265.941L1003.54 265.724L1010.49 265.251L1017.43 264.5L1024.37 263.487L1031.31 262.27L1038.26 260.955L1045.2 259.701L1052.14 258.703L1059.09 258.182L1066.03 258.356L1072.97 259.41L1079.91 261.457L1086.86 264.5L1093.8 268.408L1100.74 272.891L1107.69 277.506L1114.63 281.675L1121.57 284.734L1128.51 286.008L1135.46 284.898L1142.4 280.981L1149.34 274.112L1156.29 264.5L1163.23 252.76L1170.17 239.913L1177.11 227.333L1184.06 216.633L1191 209.498L1197.94 207.478L1204.89 211.757L1211.83 222.937L1218.77 240.859L1225.71 264.5L1232.66 291.967L1239.6 320.605L1246.54 347.217L1253.49 368.4L1260.43 380.938L1267.37 382.234L1274.31 370.711L1281.26 346.132L1288.2 309.786L1295.14 264.5L1302.09 214.451L1309.03 164.795L1315.97 121.13L1322.91 88.8611C1322.91 88.8611 1326.63 66.0022 1334.5 70.9711C1340 74.4423 1342 88.8611 1342 88.8611L1343.74 97.9282L1350.69 139.637L1357.63 196.941L1364.57 264.5L1371.51 335.523L1378.46 402.495L1385.4 458.029L1392.34 495.734C1392.34 495.734 1394.07 510.738 1400.5 509.5C1404.99 508.636 1406.23 501.588 1406.23 501.588L1413.17 467.951L1420.11 413.243L1427.06 342.992L1434 264.5L1440.94 186.008L1447.89 115.757L1456.5 60L1461.77 27.4123C1461.77 27.4123 1463.43 18 1468.71 18C1474 18 1475.66 33.266 1475.66 33.266L1482.6 70.9711L1489.54 126.505L1496.49 193.477L1503.43 264.5L1510.37 332.059L1517.31 389.363L1525 431L1528.5 446C1528.5 446 1530.62 455.544 1535.5 457C1542.76 459.165 1545.09 440.139 1545.09 440.139L1552.03 407.87L1558.97 364.205L1565.91 314.549L1572.86 264.5L1579.8 219.214L1586.74 182.868L1593.69 158.289C1593.69 158.289 1596.88 142.837 1603 144.5C1605.07 145.064 1609.5 152 1609.5 152L1613.5 160.5L1621.46 181.783L1628.4 208.395L1635.34 237.033L1642.29 264.5L1649.23 288.141L1656.17 306.063L1663.11 317.243L1670.06 321.522L1677 319.502L1683.94 312.367L1690.89 301.667L1697.83 289.087L1704.77 276.24L1711.71 264.5L1718.66 254.888L1725.6 248.019L1732.54 244.102L1739.49 242.992L1746.43 244.266L1753.37 247.325L1760.31 251.494L1767.26 256.109L1774.2 260.592L1781.14 264.5L1788.09 267.543L1795.03 269.59L1801.97 270.644L1808.91 270.818L1815.86 270.297L1822.8 269.299L1829.74 268.045L1836.69 266.73L1843.63 265.513L1850.57 264.5L1857.51 263.749L1864.46 263.276L1871.4 263.059L1878.34 263.055L1885.29 263.206L1892.23 263.456L1899.17 263.748L1906.11 264.038L1913.06 264.295L1920 264.5" stroke="#18A0FB" stroke-width="5"/>
</mask>
<g mask="url(#mask1_193_49)">
<rect x="12" y="-183" width="1920" height="893" fill="url(#paint1_linear_193_49)"/>
</g>
<g filter="url(#filter0_f_193_49)">
<mask id="mask2_193_49" style="mask-type:alpha" maskUnits="userSpaceOnUse" x="-1" y="15" width="974" height="498">
<path d="M0 264.5L6.94286 264.705L13.8857 264.962L20.8286 265.252L27.7714 265.544L34.7143 265.794L41.6571 265.945L48.6 265.941L55.5429 265.724L62.4857 265.251L69.4286 264.5L76.3714 263.487L83.3143 262.27L90.2571 260.955L97.2 259.701L104.143 258.703L111.086 258.182L118.029 258.356L124.971 259.41L131.914 261.457L138.857 264.5L145.8 268.408L152.743 272.891L159.686 277.506L166.629 281.675L173.571 284.734L180.514 286.008L187.457 284.898L194.4 280.981L201.343 274.112L208.286 264.5L215.229 252.76L222.171 239.913L229.114 227.333L236.057 216.633L243 209.498L249.943 207.478L256.886 211.757L263.829 222.937L270.771 240.859L277.714 264.5L284.657 291.967L291.6 320.605L298.543 347.217L305.486 368.4L312.429 380.938L319.371 382.234L326.314 370.711L333.257 346.132L340.2 309.786L347.143 264.5L354.086 214.451L361.029 164.795L367.971 121.13L374.914 88.8611C374.914 88.8611 378.627 66.0022 386.5 70.9711C392 74.4423 394 88.8611 394 88.8611L395.743 97.9282L402.686 139.637L409.629 196.941L416.571 264.5L423.514 335.523L430.457 402.495L437.4 458.029L444.343 495.734C444.343 495.734 446.069 510.738 452.5 509.5C456.985 508.636 458.229 501.588 458.229 501.588L465.171 467.951L472.114 413.243L479.057 342.992L486 264.5L492.943 186.008L499.886 115.757L508.5 60L513.771 27.4123C513.771 27.4123 515.429 18 520.714 18C526 18 527.657 33.266 527.657 33.266L534.6 70.9711L541.543 126.505L548.486 193.477L555.429 264.5L562.371 332.059L569.314 389.363L577 431L580.5 446C580.5 446 582.621 455.544 587.5 457C594.758 459.165 597.086 440.139 597.086 440.139L604.029 407.87L610.971 364.205L617.914 314.549L624.857 264.5L631.8 219.214L638.743 182.868L645.686 158.289C645.686 158.289 648.885 142.837 655 144.5C657.073 145.064 661.5 152 661.5 152L665.5 160.5L673.457 181.783L680.4 208.395L687.343 237.033L694.286 264.5L701.229 288.141L708.171 306.063L715.114 317.243L722.057 321.522L729 319.502L735.943 312.367L742.886 301.667L749.829 289.087L756.771 276.24L763.714 264.5L770.657 254.888L777.6 248.019L784.543 244.102L791.486 242.992L798.429 244.266L805.371 247.325L812.314 251.494L819.257 256.109L826.2 260.592L833.143 264.5L840.086 267.543L847.029 269.59L853.971 270.644L860.914 270.818L867.857 270.297L874.8 269.299L881.743 268.045L888.686 266.73L895.629 265.513L902.571 264.5L909.514 263.749L916.457 263.276L923.4 263.059L930.343 263.055L937.286 263.206L944.229 263.456L951.171 263.748L958.114 264.038L965.057 264.295L972 264.5" stroke="#18A0FB" stroke-width="5"/>
</mask>
<g mask="url(#mask2_193_49)">
<rect y="-183" width="1920" height="893" fill="url(#paint2_linear_193_49)"/>
</g>
<mask id="mask3_193_49" style="mask-type:alpha" maskUnits="userSpaceOnUse" x="970" y="15" width="951" height="498">
<path d="M971 264.5L982.714 265.794L989.657 265.945L996.6 265.941L1003.54 265.724L1010.49 265.251L1017.43 264.5L1024.37 263.487L1031.31 262.27L1038.26 260.955L1045.2 259.701L1052.14 258.703L1059.09 258.182L1066.03 258.356L1072.97 259.41L1079.91 261.457L1086.86 264.5L1093.8 268.408L1100.74 272.891L1107.69 277.506L1114.63 281.675L1121.57 284.734L1128.51 286.008L1135.46 284.898L1142.4 280.981L1149.34 274.112L1156.29 264.5L1163.23 252.76L1170.17 239.913L1177.11 227.333L1184.06 216.633L1191 209.498L1197.94 207.478L1204.89 211.757L1211.83 222.937L1218.77 240.859L1225.71 264.5L1232.66 291.967L1239.6 320.605L1246.54 347.217L1253.49 368.4L1260.43 380.938L1267.37 382.234L1274.31 370.711L1281.26 346.132L1288.2 309.786L1295.14 264.5L1302.09 214.451L1309.03 164.795L1315.97 121.13L1322.91 88.8611C1322.91 88.8611 1326.63 66.0022 1334.5 70.9711C1340 74.4423 1342 88.8611 1342 88.8611L1343.74 97.9282L1350.69 139.637L1357.63 196.941L1364.57 264.5L1371.51 335.523L1378.46 402.495L1385.4 458.029L1392.34 495.734C1392.34 495.734 1394.07 510.738 1400.5 509.5C1404.99 508.636 1406.23 501.588 1406.23 501.588L1413.17 467.951L1420.11 413.243L1427.06 342.992L1434 264.5L1440.94 186.008L1447.89 115.757L1456.5 60L1461.77 27.4123C1461.77 27.4123 1463.43 18 1468.71 18C1474 18 1475.66 33.266 1475.66 33.266L1482.6 70.9711L1489.54 126.505L1496.49 193.477L1503.43 264.5L1510.37 332.059L1517.31 389.363L1525 431L1528.5 446C1528.5 446 1530.62 455.544 1535.5 457C1542.76 459.165 1545.09 440.139 1545.09 440.139L1552.03 407.87L1558.97 364.205L1565.91 314.549L1572.86 264.5L1579.8 219.214L1586.74 182.868L1593.69 158.289C1593.69 158.289 1596.88 142.837 1603 144.5C1605.07 145.064 1609.5 152 1609.5 152L1613.5 160.5L1621.46 181.783L1628.4 208.395L1635.34 237.033L1642.29 264.5L1649.23 288.141L1656.17 306.063L1663.11 317.243L1670.06 321.522L1677 319.502L1683.94 312.367L1690.89 301.667L1697.83 289.087L1704.77 276.24L1711.71 264.5L1718.66 254.888L1725.6 248.019L1732.54 244.102L1739.49 242.992L1746.43 244.266L1753.37 247.325L1760.31 251.494L1767.26 256.109L1774.2 260.592L1781.14 264.5L1788.09 267.543L1795.03 269.59L1801.97 270.644L1808.91 270.818L1815.86 270.297L1822.8 269.299L1829.74 268.045L1836.69 266.73L1843.63 265.513L1850.57 264.5L1857.51 263.749L1864.46 263.276L1871.4 263.059L1878.34 263.055L1885.29 263.206L1892.23 263.456L1899.17 263.748L1906.11 264.038L1913.06 264.295L1920 264.5" stroke="#18A0FB" stroke-width="5"/>
</mask>
<g mask="url(#mask3_193_49)">
<rect x="12" y="-183" width="1920" height="893" fill="url(#paint3_linear_193_49)"/>
</g>
</g>
<defs>
<filter id="filter0_f_193_49" x="-15" y="0.5" width="1950.07" height="526.575" filterUnits="userSpaceOnUse" color-interpolation-filters="sRGB">
<feFlood flood-opacity="0" result="BackgroundImageFix"/>
<feBlend mode="normal" in="SourceGraphic" in2="BackgroundImageFix" result="shape"/>
<feGaussianBlur stdDeviation="7.5" result="effect1_foregroundBlur_193_49"/>
</filter>
<linearGradient id="paint0_linear_193_49" x1="1920" y1="263" x2="1.41377e-05" y2="263" gradientUnits="userSpaceOnUse">
<stop stop-color="#F0F7DA"/>
<stop offset="0.14" stop-color="#93BD9A"/>
<stop offset="0.415" stop-color="#65B8A6"/>
<stop offset="0.750011" stop-color="#2A5564"/>
<stop offset="1" stop-color="#1C1C1C"/>
</linearGradient>
<linearGradient id="paint1_linear_193_49" x1="1932" y1="263" x2="12" y2="263" gradientUnits="userSpaceOnUse">
<stop stop-color="#F0F7DA"/>
<stop offset="0.14" stop-color="#93BD9A"/>
<stop offset="0.415" stop-color="#65B8A6"/>
<stop offset="0.750011" stop-color="#2A5564"/>
<stop offset="1" stop-color="#1C1C1C"/>
</linearGradient>
<linearGradient id="paint2_linear_193_49" x1="1920" y1="263" x2="1.41377e-05" y2="263" gradientUnits="userSpaceOnUse">
<stop stop-color="#F0F7DA"/>
<stop offset="0.14" stop-color="#93BD9A"/>
<stop offset="0.415" stop-color="#65B8A6"/>
<stop offset="0.750011" stop-color="#2A5564"/>
<stop offset="1" stop-color="#1C1C1C"/>
</linearGradient>
<linearGradient id="paint3_linear_193_49" x1="1932" y1="263" x2="12" y2="263" gradientUnits="userSpaceOnUse">
<stop stop-color="#F0F7DA"/>
<stop offset="0.14" stop-color="#93BD9A"/>
<stop offset="0.415" stop-color="#65B8A6"/>
<stop offset="0.750011" stop-color="#2A5564"/>
<stop offset="1" stop-color="#1C1C1C"/>
</linearGradient>
</defs>
</svg>
