<svg width="1920" height="812" viewBox="0 0 1920 812" fill="none" xmlns="http://www.w3.org/2000/svg">
<path d="M-23 797.998C-23 797.998 181.526 725.503 325 725.503C528 725.503 567.216 771.036 770 797.998C935.5 820.003 991.368 813.361 1113 778.499C1399.9 696.266 1377.58 459.133 1649 335.003C1814.79 259.181 1935.97 247.049 2113.5 288.503" stroke="#93BD9A" stroke-width="2"/>
<path d="M-32 600.003C201.27 529.671 357.963 519.233 598.5 558.003C735 580.004 799 629.224 990.5 580.004C1222 520.503 1222.16 344.832 1424.5 163.503C1554.5 47.0031 1697.06 13.7744 1849.5 3.00327C1944.5 -3.70935 2012.5 3.00362 2151.5 77.5026" stroke="#2D6073" stroke-width="2"/>
<path d="M-23.2128 792.888C-17.6994 791.225 185.696 720.197 331.464 721.113C532.892 721.633 572.694 767.254 775.211 792.415C942.271 812.493 996.822 801.856 1120.36 763.532C1403.56 680.489 1385.13 448.176 1653.74 326.725C1817.86 252.536 1937.78 240.85 2114.4 283.085" stroke="#91BB99" stroke-width="2"/>
<path d="M-23.447 787.275C-11.8609 783.782 190.289 714.369 338.584 716.294C538.281 717.387 578.728 763.104 780.952 786.282C949.73 804.238 1002.83 789.201 1128.47 747.064C1407.58 663.129 1393.45 436.123 1658.96 317.624C1821.23 245.234 1939.77 234.039 2115.39 277.133" stroke="#8EB898" stroke-width="2"/>
<path d="M-23.7029 781.166C-5.48442 775.673 195.306 708.024 346.361 711.052C544.167 712.77 585.318 758.592 787.221 779.604C957.876 795.243 1009.39 775.4 1137.33 729.098C1411.98 644.189 1402.53 422.981 1664.66 307.704C1824.92 237.28 1941.95 226.62 2116.47 270.654" stroke="#8BB697" stroke-width="2"/>
<path d="M-23.9803 774.566C1.42988 766.905 200.745 701.169 354.793 705.393C550.549 707.789 592.464 753.724 794.019 772.388C966.709 785.514 1016.51 760.46 1146.93 709.642C1416.74 623.677 1412.38 408.755 1670.84 296.973C1828.92 228.679 1944.31 218.601 2117.64 263.654" stroke="#88B396" stroke-width="2"/>
<path d="M-24.2794 767.482C8.88204 757.484 206.608 693.81 363.881 699.322C557.427 702.449 600.166 748.507 801.346 764.639C976.229 775.057 1024.18 744.386 1157.28 688.702C1421.88 601.598 1423 393.451 1677.5 285.436C1833.23 219.439 1946.85 209.987 2118.9 256.138" stroke="#84B094" stroke-width="2"/>
<path d="M-24.6001 759.921C16.8721 747.417 212.894 685.954 373.625 692.847C564.802 696.759 608.424 742.948 809.202 756.365C986.436 763.879 1032.4 727.187 1168.38 666.284C1427.39 577.959 1434.38 377.078 1684.65 273.101C1837.85 209.566 1949.58 200.785 2120.26 248.113" stroke="#81AC93" stroke-width="2"/>
<path d="M-24.9423 751.891C25.4001 736.712 219.603 677.61 384.025 685.977C572.673 690.725 617.238 737.054 817.587 747.575C997.33 751.99 1041.18 708.87 1180.23 642.398C1433.27 552.77 1446.53 359.642 1692.27 259.976C1842.78 199.068 1952.49 191.004 2121.7 239.589" stroke="#7DA992" stroke-width="2"/>
<path d="M-25.3062 743.401C34.4659 725.38 226.735 668.786 395.08 678.72C581.041 684.358 626.607 730.836 826.5 738.277C1008.91 739.397 1050.5 689.444 1192.82 617.052C1439.52 526.038 1459.44 341.153 1700.38 246.069C1848.03 187.955 1955.58 180.653 2123.24 230.574" stroke="#79A590" stroke-width="2"/>
<path d="M-25.6915 734.463C44.0696 713.43 234.291 659.493 406.792 671.087C589.905 677.667 636.533 724.303 835.942 728.482C1021.18 726.112 1060.39 668.921 1206.16 590.256C1446.14 497.775 1473.13 321.621 1708.96 231.392C1853.58 176.238 1958.86 169.742 2124.86 221.078" stroke="#74A18E" stroke-width="2"/>
<path d="M-26.0985 725.086C54.2112 700.873 242.269 649.742 419.16 663.09C599.266 670.665 647.014 717.467 845.913 718.201C1034.14 712.145 1070.82 647.311 1220.24 562.023C1453.13 467.992 1487.57 301.059 1718.03 215.956C1859.45 163.927 1962.32 158.283 2126.58 211.114" stroke="#709D8D" stroke-width="2"/>
<path d="M-26.5271 715.286C64.8907 687.723 250.671 639.548 432.184 654.742C609.123 663.364 658.051 710.342 856.413 707.449C1047.78 697.512 1081.81 624.628 1235.08 532.365C1460.49 436.703 1502.79 279.48 1727.58 199.775C1865.62 151.037 1965.96 146.29 2128.39 200.694" stroke="#6B998B" stroke-width="2"/>
<path d="M-26.9773 705.077C76.108 673.997 259.496 628.925 445.864 646.058C619.476 655.781 669.645 702.944 867.442 696.24C1062.11 682.226 1093.36 600.887 1250.66 501.299C1468.22 403.923 1518.77 256.898 1737.6 182.863C1872.11 137.582 1969.79 133.778 2130.29 189.835" stroke="#669489" stroke-width="2"/>
<path d="M-27.449 694.478C87.8634 659.711 268.744 617.892 460.2 637.058C630.327 647.933 681.794 695.289 879 684.592C1077.13 666.306 1105.45 576.108 1266.98 468.842C1476.33 369.67 1535.51 233.333 1748.11 165.24C1878.91 123.581 1973.8 120.765 2132.28 178.554" stroke="#618F87" stroke-width="2"/>
<path d="M-27.9423 683.51C100.157 644.888 278.415 606.471 475.191 627.761C641.673 639.843 694.499 687.401 891.087 672.528C1092.83 649.774 1118.11 550.311 1284.06 435.017C1484.8 333.967 1553.02 208.807 1759.1 146.927C1886.02 109.056 1978 107.273 2134.37 166.873" stroke="#5B8A85" stroke-width="2"/>
<path d="M-28.4573 672.2C112.988 629.554 288.51 594.687 490.839 618.196C653.516 631.536 707.76 679.305 903.702 660.073C1109.22 632.656 1131.31 523.523 1301.88 399.849C1493.64 296.838 1571.3 183.344 1770.57 127.95C1893.44 94.0328 1982.37 93.328 2136.54 154.819" stroke="#558582" stroke-width="2"/>
<path d="M-28.9938 660.579C126.356 613.74 299.027 582.573 507.142 608.393C665.856 623.045 721.577 671.033 916.846 647.261C1126.3 614.985 1145.07 495.775 1320.45 363.37C1502.86 258.317 1590.35 156.978 1782.53 108.341C1901.17 78.5437 1986.94 78.9621 2138.81 142.423" stroke="#4F7F80" stroke-width="2"/>
<path d="M-29.5518 648.69C140.263 597.49 309.968 570.171 524.102 598.394C678.692 614.411 735.95 662.628 930.519 634.131C1144.07 596.801 1159.38 467.11 1339.77 325.623C1512.45 218.444 1610.16 129.749 1794.96 88.1421C1909.22 62.6302 1991.68 64.2172 2141.16 129.727" stroke="#49797E" stroke-width="2"/>
<path d="M-30.1315 636.586C154.708 580.856 321.332 557.534 541.718 588.255C692.024 605.688 750.878 654.143 944.721 620.74C1162.52 578.16 1174.24 437.582 1359.83 286.661C1522.4 177.276 1630.73 101.714 1807.87 67.4077C1917.57 46.347 1996.61 49.1477 2143.61 116.786" stroke="#42737B" stroke-width="2"/>
<path d="M-30.7328 624.346C169.691 563.917 333.119 544.741 559.989 578.052C705.853 596.955 766.363 645.656 959.452 607.163C1181.66 559.139 1189.66 407.269 1380.64 246.563C1532.73 134.888 1652.08 72.9479 1821.27 46.215C1926.24 29.7712 2001.72 33.8308 2146.15 103.677" stroke="#3B6D78" stroke-width="2"/>
<path d="M-31.3556 612.085C185.211 546.789 345.329 531.907 578.917 567.901C720.178 588.327 782.404 637.283 974.712 593.518C1201.49 539.853 1205.63 376.285 1402.2 205.443C1543.43 91.3968 1674.19 43.5679 1835.14 24.68C1935.21 13.0189 2007.02 18.3826 2148.78 90.5155" stroke="#346776" stroke-width="2"/>
</svg>
