<svg width="1920" height="636" viewBox="0 0 1920 636" fill="none" xmlns="http://www.w3.org/2000/svg">
<mask id="mask0_176_249" style="mask-type:alpha" maskUnits="userSpaceOnUse" x="-24" y="0" width="1991" height="636">
<path d="M-23 635.5C-23 635.5 241.877 613.886 412 609C564.047 604.633 650.576 627.953 801.5 609C1040.81 578.948 1159.84 493.542 1387 412.5C1614.69 331.27 1741.55 283.289 1966 193.5" stroke="black"/>
<path d="M11 415C11 415 306.667 358.133 497 369C615.912 375.789 686.519 394.952 805.5 389.5C1015.73 379.866 1079.08 290.24 1276 216C1518.91 124.423 1676.96 68.9644 1927.5 1" stroke="black"/>
<path d="M-21.1733 623.654C-21.1733 623.654 245.358 600.146 416.567 596.106C566.833 592.339 652.507 615.435 801.715 597.208C1039.46 568.253 1155.5 482.619 1381.04 401.943C1609.55 320.157 1738.08 271.774 1963.93 183.158" stroke="black"/>
<path d="M-19.3676 611.942C-19.3676 611.942 248.799 586.562 421.081 583.359C569.588 580.184 654.416 603.059 801.927 585.549C1038.13 557.679 1151.21 471.821 1375.14 391.506C1604.46 309.17 1734.65 260.391 1961.89 172.934" stroke="black"/>
<path d="M-17.5824 600.366C-17.5824 600.366 252.201 573.135 425.544 570.758C572.311 568.169 656.303 590.827 802.137 574.025C1036.81 547.227 1146.97 461.148 1369.31 381.19C1599.43 298.311 1731.25 249.138 1959.87 162.827" stroke="black"/>
<path d="M-15.8181 588.923C-15.8181 588.923 255.563 559.863 429.955 558.304C575.002 556.293 658.169 578.735 802.345 562.634C1035.51 536.895 1142.78 450.597 1363.55 370.992C1594.46 287.576 1727.9 238.016 1957.87 152.837" stroke="black"/>
<path d="M-14.0745 577.615C-14.0745 577.615 258.885 546.747 434.314 545.996C577.662 544.558 660.012 566.787 802.55 551.378C1034.22 526.686 1138.64 440.172 1357.86 360.916C1589.55 276.969 1724.59 227.025 1955.89 142.966" stroke="black"/>
<path d="M-12.3517 566.442C-12.3517 566.442 262.168 533.788 438.621 533.835C580.29 532.962 661.833 554.98 802.753 540.255C1032.95 516.598 1134.55 429.87 1352.24 350.959C1584.69 266.488 1721.32 216.165 1953.94 133.211" stroke="black"/>
<path d="M-10.6495 555.404C-10.6495 555.404 265.412 520.984 442.876 521.82C582.887 521.506 663.632 543.316 802.953 529.267C1031.7 506.632 1130.5 419.693 1346.68 341.122C1579.9 256.133 1718.08 205.436 1952.02 123.575" stroke="black"/>
<path d="M-8.96826 544.5C-8.96826 544.5 268.616 508.337 447.079 509.952C585.451 510.19 665.41 531.794 803.151 518.413C1030.46 496.788 1126.51 409.639 1341.19 331.405C1575.16 245.904 1714.89 194.837 1950.11 114.056" stroke="black"/>
<path d="M-7.30774 533.731C-7.30774 533.731 271.78 495.846 451.231 498.231C587.984 499.013 667.165 520.414 803.346 507.692C1029.23 487.064 1122.56 399.71 1335.77 321.808C1570.48 235.802 1711.74 184.37 1948.23 104.654" stroke="black"/>
<path d="M-5.66785 523.096C-5.66785 523.096 274.905 483.511 455.33 486.656C590.486 487.976 668.899 509.177 803.539 497.106C1028.02 477.463 1118.67 389.905 1330.42 312.331C1565.86 225.826 1708.62 174.033 1946.37 95.3696" stroke="black"/>
<path d="M-4.04883 512.596C-4.04883 512.596 277.99 471.333 459.378 475.227C592.956 477.079 670.61 498.082 803.73 486.654C1026.83 467.983 1114.82 380.224 1325.13 302.974C1561.3 215.976 1705.55 163.827 1944.54 86.2031" stroke="black"/>
<path d="M-2.45056 502.231C-2.45056 502.231 281.036 459.31 463.374 463.945C595.394 466.321 672.3 487.128 803.918 476.335C1025.65 458.624 1111.03 370.667 1319.91 293.736C1556.8 206.252 1702.51 153.752 1942.73 77.1538" stroke="black"/>
<path d="M-0.873047 492C-0.873047 492 284.042 447.444 467.317 452.809C597.8 455.703 673.968 476.318 804.103 466.151C1024.49 449.387 1107.28 361.234 1314.76 284.619C1552.36 196.655 1699.51 143.808 1940.94 68.2222" stroke="black"/>
<path d="M0.683716 481.904C0.683716 481.904 287.008 435.733 471.209 441.821C600.175 445.225 675.613 465.649 804.286 456.101C1023.34 440.271 1103.58 351.926 1309.68 275.622C1547.97 187.184 1696.56 133.994 1939.18 59.4082" stroke="black"/>
<path d="M2.21973 471.942C2.21973 471.942 289.935 424.179 475.049 430.978C602.518 434.886 677.237 455.123 804.467 446.184C1022.2 431.277 1099.93 342.741 1304.66 266.744C1543.64 177.839 1693.64 124.312 1937.44 50.7114" stroke="black"/>
<path d="M3.73499 462.115C3.73499 462.115 292.823 412.781 478.838 420.282C604.83 424.687 678.839 444.739 804.645 436.402C1021.09 422.405 1096.34 333.68 1299.72 257.987C1539.37 168.62 1690.76 114.76 1935.73 42.1323" stroke="black"/>
<path d="M5.22949 452.423C5.22949 452.423 295.671 401.539 482.574 409.733C607.109 414.628 680.419 434.497 804.821 426.753C1019.99 413.654 1092.79 324.744 1294.84 249.35C1535.16 159.528 1687.92 105.339 1934.03 33.6709" stroke="black"/>
<path d="M6.70325 442.866C6.70325 442.866 298.479 390.454 486.258 399.33C609.357 404.709 681.977 424.398 804.994 417.239C1018.9 405.025 1089.29 315.932 1290.03 240.833C1531.01 150.563 1685.12 96.0496 1932.37 25.3271" stroke="black"/>
<path d="M8.15625 433.442C8.15625 433.442 301.248 379.524 489.891 389.073C611.574 394.93 683.513 414.44 805.165 407.859C1017.83 396.517 1085.83 307.244 1285.28 232.435C1526.92 141.723 1682.36 86.8903 1930.72 17.1006" stroke="black"/>
<path d="M9.5885 424.154C9.5885 424.154 303.977 368.75 493.471 378.963C613.759 385.289 685.027 404.625 805.334 398.612C1016.77 388.13 1082.43 298.68 1280.61 224.157C1522.88 133.009 1679.64 77.8616 1929.1 8.99121" stroke="black"/>
</mask>
<g mask="url(#mask0_176_249)">
<rect x="-23" y="-186" width="1989" height="893" fill="url(#paint0_linear_176_249)"/>
</g>
<defs>
<linearGradient id="paint0_linear_176_249" x1="1966" y1="260" x2="-23" y2="260" gradientUnits="userSpaceOnUse">
<stop stop-color="#F0F7DA"/>
<stop offset="0.14" stop-color="#93BD9A"/>
<stop offset="0.415" stop-color="#65B8A6"/>
<stop offset="0.750011" stop-color="#2A5564"/>
<stop offset="1" stop-color="#1C1C1C"/>
</linearGradient>
</defs>
</svg>
