<svg width="678" height="417" viewBox="0 0 678 417" fill="none" xmlns="http://www.w3.org/2000/svg">
<mask id="mask0_159_13267" style="mask-type:alpha" maskUnits="userSpaceOnUse" x="164" y="129" width="426" height="448">
<path d="M559.77 268.204C591.216 280.79 597.245 322.698 570.622 343.638L288.814 565.292C262.191 586.232 222.883 570.5 218.06 536.974L167.006 182.093C162.183 148.567 195.461 122.392 226.907 134.978L559.77 268.204Z" stroke="black" stroke-width="4"/>
</mask>
<g mask="url(#mask0_159_13267)">
<rect x="-44.0001" y="377.652" width="545" height="545" transform="rotate(-50.6849 -44.0001 377.652)" fill="url(#paint0_linear_159_13267)"/>
</g>
<g filter="url(#filter0_f_159_13267)">
<mask id="mask1_159_13267" style="mask-type:alpha" maskUnits="userSpaceOnUse" x="164" y="129" width="426" height="448">
<path d="M559.77 268.204C591.216 280.79 597.245 322.698 570.622 343.638L288.814 565.292C262.191 586.232 222.883 570.5 218.06 536.974L167.006 182.093C162.183 148.567 195.461 122.392 226.907 134.978L559.77 268.204Z" stroke="black" stroke-width="4"/>
</mask>
<g mask="url(#mask1_159_13267)">
<rect x="-44.0001" y="377.652" width="545" height="545" transform="rotate(-50.6849 -44.0001 377.652)" fill="url(#paint1_linear_159_13267)"/>
</g>
</g>
<defs>
<filter id="filter0_f_159_13267" x="149.536" y="114.76" width="454.893" height="476.998" filterUnits="userSpaceOnUse" color-interpolation-filters="sRGB">
<feFlood flood-opacity="0" result="BackgroundImageFix"/>
<feBlend mode="normal" in="SourceGraphic" in2="BackgroundImageFix" result="shape"/>
<feGaussianBlur stdDeviation="7.5" result="effect1_foregroundBlur_159_13267"/>
</filter>
<linearGradient id="paint0_linear_159_13267" x1="501" y1="649.847" x2="-44.0001" y2="649.847" gradientUnits="userSpaceOnUse">
<stop stop-color="#F0F7DA"/>
<stop offset="0.14" stop-color="#93BD9A"/>
<stop offset="0.415" stop-color="#65B8A6"/>
<stop offset="0.750011" stop-color="#2A5564"/>
<stop offset="1" stop-color="#1C1C1C"/>
</linearGradient>
<linearGradient id="paint1_linear_159_13267" x1="501" y1="649.847" x2="-44.0001" y2="649.847" gradientUnits="userSpaceOnUse">
<stop stop-color="#F0F7DA"/>
<stop offset="0.14" stop-color="#93BD9A"/>
<stop offset="0.415" stop-color="#65B8A6"/>
<stop offset="0.750011" stop-color="#2A5564"/>
<stop offset="1" stop-color="#1C1C1C"/>
</linearGradient>
</defs>
</svg>
