<svg width="861" height="1080" viewBox="0 0 861 1080" fill="none" xmlns="http://www.w3.org/2000/svg">
<mask id="mask0_159_13253" style="mask-type:alpha" maskUnits="userSpaceOnUse" x="-36" y="290" width="651" height="604">
<path d="M546.988 333.586C601.463 338.033 630.695 399.783 599.607 444.736L311.928 860.708C280.84 905.661 212.747 900.102 189.36 850.702L-27.043 393.579C-50.4291 344.179 -11.5684 287.988 42.9062 292.435L546.988 333.586Z" stroke="black" stroke-width="4"/>
</mask>
<g mask="url(#mask0_159_13253)">
<rect x="-169" y="82" width="893" height="893" fill="url(#paint0_linear_159_13253)"/>
</g>
<g filter="url(#filter0_f_159_13253)">
<mask id="mask1_159_13253" style="mask-type:alpha" maskUnits="userSpaceOnUse" x="-36" y="290" width="651" height="604">
<path d="M546.988 333.586C601.463 338.033 630.695 399.783 599.607 444.736L311.928 860.708C280.84 905.661 212.747 900.102 189.36 850.702L-27.043 393.579C-50.4291 344.179 -11.5684 287.988 42.9062 292.435L546.988 333.586Z" stroke="black" stroke-width="4"/>
</mask>
<g mask="url(#mask1_159_13253)">
<rect x="-169" y="82" width="893" height="893" fill="url(#paint1_linear_159_13253)"/>
</g>
</g>
<defs>
<filter id="filter0_f_159_13253" x="-50.9829" y="275.187" width="680.289" height="633.141" filterUnits="userSpaceOnUse" color-interpolation-filters="sRGB">
<feFlood flood-opacity="0" result="BackgroundImageFix"/>
<feBlend mode="normal" in="SourceGraphic" in2="BackgroundImageFix" result="shape"/>
<feGaussianBlur stdDeviation="7.5" result="effect1_foregroundBlur_159_13253"/>
</filter>
<linearGradient id="paint0_linear_159_13253" x1="724" y1="528" x2="-169" y2="528" gradientUnits="userSpaceOnUse">
<stop stop-color="#F0F7DA"/>
<stop offset="0.14" stop-color="#93BD9A"/>
<stop offset="0.415" stop-color="#65B8A6"/>
<stop offset="0.750011" stop-color="#2A5564"/>
<stop offset="1" stop-color="#1C1C1C"/>
</linearGradient>
<linearGradient id="paint1_linear_159_13253" x1="724" y1="528" x2="-169" y2="528" gradientUnits="userSpaceOnUse">
<stop stop-color="#F0F7DA"/>
<stop offset="0.14" stop-color="#93BD9A"/>
<stop offset="0.415" stop-color="#65B8A6"/>
<stop offset="0.750011" stop-color="#2A5564"/>
<stop offset="1" stop-color="#1C1C1C"/>
</linearGradient>
</defs>
</svg>
