<svg width="751" height="487" viewBox="0 0 751 487" fill="none" xmlns="http://www.w3.org/2000/svg">
<mask id="mask0_159_13260" style="mask-type:alpha" maskUnits="userSpaceOnUse" x="192" y="-51" width="402" height="388">
<path d="M196.099 -2.06146C187.118 -27.4634 209.003 -53.0624 235.492 -48.1396L562.448 12.6207C588.938 17.5434 600.164 49.2958 582.657 69.775L366.559 322.547C349.051 343.026 315.939 336.873 306.957 311.471L196.099 -2.06146Z" stroke="black" stroke-width="4"/>
</mask>
<g mask="url(#mask0_159_13260)">
<rect x="105" y="-159" width="540" height="540" fill="url(#paint0_linear_159_13260)"/>
</g>
<g filter="url(#filter0_f_159_13260)">
<mask id="mask1_159_13260" style="mask-type:alpha" maskUnits="userSpaceOnUse" x="192" y="-51" width="402" height="388">
<path d="M196.099 -2.06146C187.118 -27.4634 209.003 -53.0624 235.492 -48.1396L562.448 12.6207C588.938 17.5434 600.164 49.2958 582.657 69.775L366.559 322.547C349.051 343.026 315.939 336.873 306.957 311.471L196.099 -2.06146Z" stroke="black" stroke-width="4"/>
</mask>
<g mask="url(#mask1_159_13260)">
<rect x="105" y="-159" width="540" height="540" fill="url(#paint1_linear_159_13260)"/>
</g>
</g>
<defs>
<filter id="filter0_f_159_13260" x="177.047" y="-65.7537" width="431.041" height="417.569" filterUnits="userSpaceOnUse" color-interpolation-filters="sRGB">
<feFlood flood-opacity="0" result="BackgroundImageFix"/>
<feBlend mode="normal" in="SourceGraphic" in2="BackgroundImageFix" result="shape"/>
<feGaussianBlur stdDeviation="7.5" result="effect1_foregroundBlur_159_13260"/>
</filter>
<linearGradient id="paint0_linear_159_13260" x1="645" y1="110.698" x2="105" y2="110.698" gradientUnits="userSpaceOnUse">
<stop stop-color="#F0F7DA"/>
<stop offset="0.14" stop-color="#93BD9A"/>
<stop offset="0.415" stop-color="#65B8A6"/>
<stop offset="0.750011" stop-color="#2A5564"/>
<stop offset="1" stop-color="#1C1C1C"/>
</linearGradient>
<linearGradient id="paint1_linear_159_13260" x1="645" y1="110.698" x2="105" y2="110.698" gradientUnits="userSpaceOnUse">
<stop stop-color="#F0F7DA"/>
<stop offset="0.14" stop-color="#93BD9A"/>
<stop offset="0.415" stop-color="#65B8A6"/>
<stop offset="0.750011" stop-color="#2A5564"/>
<stop offset="1" stop-color="#1C1C1C"/>
</linearGradient>
</defs>
</svg>
